<svg width="24" height="25" viewBox="0 0 24 25" fill="none" xmlns="http://www.w3.org/2000/svg"><path d="M20 7.09473H17V5.09473C17 3.98473 16.11 3.09473 15 3.09473H9C7.89 3.09473 7 3.98473 7 5.09473V7.09473H4C2.89 7.09473 2 7.98473 2 9.09473V20.0947C2 21.2047 2.89 22.0947 4 22.0947H20C21.11 22.0947 22 21.2047 22 20.0947V9.09473C22 7.98473 21.11 7.09473 20 7.09473ZM9 5.09473H15V7.09473H9V5.09473ZM20 20.0947H4V18.0947H20V20.0947ZM20 15.0947H4V9.09473H7V11.0947H9V9.09473H15V11.0947H17V9.09473H20V15.0947Z" fill="#6851FF"/></svg>