<svg width="24" height="25" viewBox="0 0 24 25" fill="none" xmlns="http://www.w3.org/2000/svg"><path d="M15.7549 14.8496H14.9649L14.6849 14.5796C15.6649 13.4396 16.2549 11.9596 16.2549 10.3496C16.2549 6.75961 13.3449 3.84961 9.75488 3.84961C6.16488 3.84961 3.25488 6.75961 3.25488 10.3496C3.25488 13.9396 6.16488 16.8496 9.75488 16.8496C11.3649 16.8496 12.8449 16.2596 13.9849 15.2796L14.2549 15.5596V16.3496L19.2549 21.3396L20.7449 19.8496L15.7549 14.8496ZM9.75488 14.8496C7.26488 14.8496 5.25488 12.8396 5.25488 10.3496C5.25488 7.85961 7.26488 5.84961 9.75488 5.84961C12.2449 5.84961 14.2549 7.85961 14.2549 10.3496C14.2549 12.8396 12.2449 14.8496 9.75488 14.8496Z" fill="#6851FF"/></svg>