<svg width="24" height="25" viewBox="0 0 24 25" fill="none" xmlns="http://www.w3.org/2000/svg"><path d="M19 5.59473V19.5947H5V5.59473H19ZM19 3.59473H5C3.89 3.59473 3 4.49473 3 5.59473V19.5947C3 20.6947 3.89 21.5947 5 21.5947H19C20.1 21.5947 21 20.6947 21 19.5947V5.59473C21 4.49473 20.1 3.59473 19 3.59473ZM12 12.5947C10.35 12.5947 9 11.2447 9 9.59473C9 7.94473 10.35 6.59473 12 6.59473C13.65 6.59473 15 7.94473 15 9.59473C15 11.2447 13.65 12.5947 12 12.5947ZM12 8.59473C11.45 8.59473 11 9.04473 11 9.59473C11 10.1447 11.45 10.5947 12 10.5947C12.55 10.5947 13 10.1447 13 9.59473C13 9.04473 12.55 8.59473 12 8.59473ZM18 18.5947H6V17.0647C6 14.5647 9.97 13.4847 12 13.4847C14.03 13.4847 18 14.5647 18 17.0647V18.5947ZM8.31 16.5947H15.69C15 16.0347 13.31 15.4747 12 15.4747C10.69 15.4747 8.99 16.0347 8.31 16.5947Z" fill="#6851FF"/></svg>